<svg width="28" height="22" xmlns="http://www.w3.org/2000/svg"><g fill-rule="nonzero" fill="none"><path d="M26.86 13.763v-.32h-.083l-.096.22-.096-.22H26.5v.32h.06v-.242l.09.209h.06l.091-.21v.243h.059zm-.529 0v-.266h.107v-.054h-.273v.054h.107v.266h.06z" fill="#0099DF"/><path fill="#BBB" d="M17.372 15.138h-7.224V2.154h7.224z"/><path d="M10.606 8.646a8.243 8.243 0 0 1 3.154-6.491A8.256 8.256 0 0 0 .4 8.647a8.256 8.256 0 0 0 13.359 6.491 8.243 8.243 0 0 1-3.154-6.492" fill="#666"/><path d="M27.119 8.646a8.256 8.256 0 0 1-13.36 6.492 8.242 8.242 0 0 0 3.155-6.492 8.242 8.242 0 0 0-3.154-6.491 8.256 8.256 0 0 1 13.36 6.492" fill="#9E9E9E"/><g fill="#231F20"><path d="M19.817 18.806c.096 0 .234.019.34.06l-.148.45a.773.773 0 0 0-.298-.056c-.312 0-.468.202-.468.564v1.23h-.477V18.86h.473v.267a.647.647 0 0 1 .578-.322zm-1.763.491h-.78v.99c0 .22.078.368.317.368.124 0 .28-.042.421-.124l.138.408c-.151.105-.39.17-.596.17-.564 0-.761-.303-.761-.812v-1h-.445v-.436h.445v-.665h.481v.665h.78v.436zm-6.105.468c.05-.317.243-.532.583-.532.307 0 .504.192.555.532h-1.138zm1.633.193c-.005-.684-.427-1.152-1.041-1.152-.642 0-1.092.468-1.092 1.152 0 .696.468 1.15 1.124 1.15.33 0 .633-.082.899-.307l-.234-.353c-.183.147-.418.23-.638.23-.307 0-.586-.143-.655-.537h1.628c.004-.06.01-.12.01-.183zm2.096-.537a1.406 1.406 0 0 0-.683-.188c-.262 0-.418.096-.418.257 0 .146.165.188.372.215l.224.032c.477.07.766.271.766.656 0 .418-.367.716-1 .716-.357 0-.688-.092-.949-.285l.225-.371c.16.124.4.229.73.229.325 0 .5-.096.5-.266 0-.123-.125-.193-.386-.229l-.225-.032c-.49-.07-.757-.29-.757-.647 0-.435.358-.702.913-.702.349 0 .665.079.894.23l-.206.385zm5.882-.162a.722.722 0 0 0-.274.052.656.656 0 0 0-.363.368.754.754 0 0 0-.052.286c0 .104.017.2.052.286a.656.656 0 0 0 .363.368.713.713 0 0 0 .274.051.71.71 0 0 0 .273-.051.656.656 0 0 0 .366-.368.752.752 0 0 0 .053-.286c0-.104-.017-.2-.053-.286a.668.668 0 0 0-.64-.42zm0-.453c.17 0 .328.03.472.09a1.115 1.115 0 0 1 .624.61c.06.14.09.294.09.459 0 .165-.03.319-.09.46a1.117 1.117 0 0 1-.624.61 1.245 1.245 0 0 1-.472.089c-.17 0-.328-.03-.473-.089-.144-.059-.269-.14-.374-.243a1.13 1.13 0 0 1-.337-.827c0-.165.03-.319.09-.46a1.129 1.129 0 0 1 .621-.61c.145-.06.303-.089.473-.089zM9.163 19.958c0-.386.252-.702.665-.702.394 0 .66.303.66.702 0 .399-.266.7-.66.7-.413 0-.665-.315-.665-.7zm1.774 0V18.86h-.476v.267c-.152-.198-.38-.322-.693-.322-.614 0-1.096.482-1.096 1.152 0 .669.482 1.15 1.096 1.15.312 0 .541-.123.693-.32v.266h.476v-1.096zM8.25 21.054v-1.376c0-.518-.33-.867-.862-.872-.28-.004-.569.083-.77.39a.806.806 0 0 0-.725-.39.726.726 0 0 0-.642.326v-.27h-.477v2.192h.481v-1.216c0-.38.211-.582.537-.582.316 0 .477.206.477.578v1.22h.481v-1.216c0-.38.22-.582.537-.582.326 0 .482.206.482.578v1.22h.481zM23.283 20.889v.054h.05a.05.05 0 0 0 .026-.007.023.023 0 0 0 .01-.02.022.022 0 0 0-.01-.02.045.045 0 0 0-.026-.007h-.05zm.05-.038c.026 0 .046.006.06.017a.057.057 0 0 1 .021.048c0 .016-.005.03-.017.041a.083.083 0 0 1-.048.02l.067.076h-.052l-.061-.076h-.02v.076h-.043v-.202h.093zm-.013.271a.172.172 0 0 0 .155-.103.173.173 0 0 0-.036-.186.162.162 0 0 0-.053-.036.16.16 0 0 0-.066-.013.166.166 0 0 0-.067.013.162.162 0 0 0-.09.09.164.164 0 0 0-.013.066c0 .023.004.045.013.066a.16.16 0 0 0 .09.09c.02.01.043.013.067.013zm0-.387c.031 0 .06.006.086.017a.216.216 0 0 1 0 .401.221.221 0 0 1-.31-.2.214.214 0 0 1 .135-.2.221.221 0 0 1 .09-.018z"/></g></g></svg>