<svg width="28" height="22" xmlns="http://www.w3.org/2000/svg"><g fill-rule="nonzero" fill="none"><path d="M26.883 21.591v.055h.05c.01 0 .02-.003.027-.007a.024.024 0 0 0 .01-.02.023.023 0 0 0-.01-.02.048.048 0 0 0-.027-.008h-.05zm.05-.038c.026 0 .046.006.06.018a.058.058 0 0 1 .022.047c0 .017-.005.031-.017.042a.082.082 0 0 1-.048.02l.066.077h-.051l-.062-.076h-.02v.076h-.044v-.204h.094zm-.013.274a.174.174 0 0 0 .157-.105.174.174 0 0 0-.037-.187.17.17 0 0 0-.12-.05.172.172 0 0 0-.122.05.166.166 0 0 0-.036.054.165.165 0 0 0-.013.067c0 .024.004.046.013.067a.16.16 0 0 0 .091.09c.02.01.043.014.067.014zm0-.39a.22.22 0 0 1 .158.064.215.215 0 0 1 .048.24.227.227 0 0 1-.119.117.223.223 0 0 1-.312-.202.215.215 0 0 1 .136-.202.223.223 0 0 1 .09-.018zm-20.604-.785c0-.388.254-.707.67-.707.397 0 .665.305.665.707 0 .402-.268.707-.665.707-.416 0-.67-.319-.67-.707zm1.788 0v-1.104h-.48v.268c-.153-.199-.384-.324-.698-.324-.62 0-1.105.486-1.105 1.16 0 .675.486 1.16 1.105 1.16.314 0 .545-.125.698-.324v.268h.48v-1.104zm16.227 0c0-.388.254-.707.67-.707.398 0 .665.305.665.707 0 .402-.267.707-.665.707-.416 0-.67-.319-.67-.707zm1.788 0v-1.99h-.48v1.154c-.153-.199-.384-.324-.698-.324-.62 0-1.105.486-1.105 1.16 0 .675.486 1.16 1.105 1.16.314 0 .545-.125.698-.324v.268h.48v-1.104zm-12.055-.73c.31 0 .509.194.56.536h-1.147c.052-.319.245-.536.587-.536zm.01-.43c-.647 0-1.1.472-1.1 1.16 0 .702.471 1.16 1.132 1.16.333 0 .637-.083.906-.31l-.236-.355a1.056 1.056 0 0 1-.642.23c-.31 0-.592-.143-.66-.54h1.64c.004-.06.009-.12.009-.185-.005-.688-.43-1.16-1.05-1.16zm5.798 1.16c0-.388.255-.707.67-.707.397 0 .666.305.666.707 0 .402-.269.707-.666.707-.415 0-.67-.319-.67-.707zm1.788 0v-1.104h-.48v.268c-.153-.199-.383-.324-.697-.324-.62 0-1.105.486-1.105 1.16 0 .675.485 1.16 1.105 1.16.314 0 .544-.125.697-.324v.268h.48v-1.104zm-4.5 0c0 .67.467 1.16 1.179 1.16.332 0 .554-.074.794-.263l-.23-.389a.97.97 0 0 1-.579.2c-.383-.006-.665-.283-.665-.708s.282-.702.665-.707a.97.97 0 0 1 .578.199l.23-.388c-.24-.19-.46-.264-.793-.264-.712 0-1.179.49-1.179 1.16zm6.191-1.16a.652.652 0 0 0-.582.324v-.268h-.476v2.208h.481v-1.238c0-.365.157-.568.471-.568.098 0 .199.014.3.055l.149-.452a1.023 1.023 0 0 0-.343-.06zm-12.872.232c-.231-.153-.55-.232-.9-.232-.56 0-.92.269-.92.707 0 .36.268.583.762.652l.227.032c.263.037.387.107.387.231 0 .171-.175.268-.503.268-.333 0-.573-.106-.735-.23l-.226.373c.263.194.596.287.956.287.638 0 1.007-.3 1.007-.72 0-.39-.29-.592-.771-.661l-.227-.033c-.207-.028-.374-.069-.374-.217 0-.162.157-.259.42-.259.282 0 .555.107.689.19l.208-.388zm6.196-.232a.65.65 0 0 0-.582.324v-.268h-.476v2.208h.48v-1.238c0-.365.157-.568.472-.568.097 0 .198.014.3.055l.148-.452a1.023 1.023 0 0 0-.342-.06zm-4.098.056h-.786v-.67h-.485v.67h-.448v.439h.448v1.007c0 .513.199.818.767.818.208 0 .448-.065.6-.17l-.138-.412a.889.889 0 0 1-.425.124c-.24 0-.319-.148-.319-.37v-.997h.786v-.44zm-7.18 2.208V20.37c0-.522-.333-.873-.87-.878-.281-.004-.572.083-.776.393a.81.81 0 0 0-.73-.393.73.73 0 0 0-.646.328v-.272h-.48v2.208h.484v-1.224c0-.383.213-.587.541-.587.319 0 .48.208.48.582v1.23h.486v-1.225c0-.383.221-.587.54-.587.328 0 .485.208.485.582v1.23h.486z" fill="#231F20"/><path d="M27.157 14.41v-.322h-.085l-.097.221-.097-.221h-.084v.322h.06v-.243l.09.21h.062l.091-.21v.243h.06zm-.534 0v-.267h.108v-.055h-.275v.055h.108v.267h.059z" fill="#F79410"/><path fill="#BBB" d="M17.598 15.795H10.32V2.715h7.278z"/><path d="M10.781 9.256a8.304 8.304 0 0 1 3.177-6.54A8.318 8.318 0 0 0 .5 9.256a8.318 8.318 0 0 0 13.458 6.54 8.304 8.304 0 0 1-3.177-6.54" fill="#666"/><path d="M27.416 9.256a8.318 8.318 0 0 1-13.458 6.54 8.303 8.303 0 0 0 3.177-6.54 8.303 8.303 0 0 0-3.177-6.54 8.318 8.318 0 0 1 13.458 6.54" fill="#9E9E9E"/></g></svg>