<svg xmlns="http://www.w3.org/2000/svg" xmlns:xlink="http://www.w3.org/1999/xlink" width="40" height="40" version="1.1" style=""><rect id="backgroundrect" width="100%" height="100%" x="0" y="0" fill="none" stroke="none"/>
    <!-- Generator: Sketch 57.1 (83088) - https://sketch.com -->
    <title>logo/CB/paypal/Black</title>
    <desc>Created with Sketch.</desc>
    
<g class="currentLayer" style=""><title>Layer 1</title><g id="logo/CB/paypal/Black" stroke="none" stroke-width="1" fill="#666666" fill-rule="evenodd" class="" fill-opacity="1">
        <path d="M16.8527704,17.378334 C17.0439476,17.3784273 17.212499,17.503732 17.2676655,17.6867767 L17.2676655,17.6867767 L18.1429487,20.6096947 L20.2078708,17.5680403 C20.2885608,17.449558 20.422551,17.3785619 20.5658998,17.378334 L20.5658998,17.378334 L22.0630707,17.378334 C22.1595523,17.378334 22.2480312,17.4319879 22.2927387,17.5174861 C22.3374461,17.6029843 22.3309889,17.7062345 22.2759774,17.7854963 L22.2759774,17.7854963 L17.296326,24.9733724 C17.2155358,25.0898081 17.0827456,25.1591786 16.9410266,25.1589838 L16.9410266,25.1589838 L15.4456754,25.1589838 C15.3486527,25.1589838 15.2597235,25.1048997 15.2151881,25.0187022 C15.1706527,24.9325047 15.1779624,24.8286564 15.2341335,24.7495474 L15.2341335,24.7495474 L16.7845311,22.5608846 L15.1354139,17.7213513 C15.1083647,17.6420445 15.1213049,17.554555 15.1701535,17.4864739 C15.2190022,17.4183928 15.297738,17.3781121 15.3815304,17.378334 L15.3815304,17.378334 Z M10.4523761,17.2382169 C11.1702539,17.2382169 11.8894964,17.3947124 12.212041,17.8628342 L12.212041,17.8628342 L12.3162197,18.0138706 L12.3821844,17.5971557 C12.4021048,17.4711404 12.5107292,17.3783369 12.6383094,17.378335 L12.6383094,17.378335 L14.1282014,17.378335 C14.2039004,17.3783116 14.2758025,17.4114832 14.3249152,17.4690877 C14.3740279,17.5266922 14.3954111,17.6029355 14.3834165,17.6776782 L14.3834165,17.6776782 L13.5781924,22.7769758 C13.545242,22.987356 13.363959,23.1423828 13.1510142,23.1422837 L13.1510142,23.1422837 L11.808974,23.1422837 C11.7331156,23.1421706 11.6611107,23.1088459 11.6119302,23.0510895 C11.5627498,22.9933331 11.5413263,22.9169376 11.553304,22.8420307 L11.553304,22.8420307 L11.6197236,22.4280454 C11.6197236,22.4280454 10.8841036,23.281037 9.55753106,23.281037 C8.78460691,23.281037 8.13496848,23.0581219 7.68094947,22.5231255 C7.18598686,21.9412715 6.98354352,21.106932 7.12593625,20.2343784 C7.39980343,18.4851769 8.80598857,17.2382169 10.4523761,17.2382169 Z M32.6451712,17.2382169 C33.3630489,17.2382169 34.0818365,17.3947124 34.4043811,17.8628342 L34.4043811,17.8628342 L34.5090147,18.0138706 L34.5749794,17.5971557 C34.5943359,17.471011 34.7030288,17.3779839 34.8306494,17.378335 L34.8306494,17.378335 L36.3196316,17.378335 C36.3954898,17.3782464 36.4675965,17.4113215 36.5170147,17.4688741 C36.566433,17.5264268 36.5882246,17.6027056 36.5766664,17.6776782 L36.5766664,17.6776782 L35.7709874,22.7769758 C35.7380637,22.9871857 35.5570366,23.1421588 35.3442641,23.1422837 L35.3442641,23.1422837 L34.0026789,23.1422837 C33.9266615,23.1424371 33.8544054,23.1092267 33.8050204,23.0514358 C33.7556354,22.9936449 33.7340961,22.9170946 33.746099,22.8420307 L33.746099,22.8420307 L33.8125186,22.4280454 C33.8125186,22.4280454 33.0768987,23.281037 31.7503261,23.281037 C30.9774019,23.281037 30.3286734,23.0581219 29.8737445,22.5231255 C29.3787819,21.9412715 29.1772484,21.106932 29.3191862,20.2343784 C29.5930534,18.4851769 30.9987836,17.2382169 32.6451712,17.2382169 Z M4.82809053,14.5004548 C5.86942272,14.5004548 6.65372009,14.775232 7.09591095,15.2947607 C7.498523,15.7678868 7.63181715,16.4434561 7.49260892,17.3032717 C7.18371222,19.2685644 6.00089716,20.2603093 3.9514426,20.2603093 L3.9514426,20.2603093 L2.9665216,20.2603093 C2.75374909,20.2604343 2.57272204,20.4154074 2.53979832,20.6256172 L2.53979832,20.6256172 L2.20042139,22.7774308 C2.16747099,22.9878109 1.98618803,23.1428377 1.77324318,23.1427389 L1.77324318,23.1427389 L0.287900421,23.1427389 C0.212069068,23.1428496 0.139989017,23.1097613 0.090638574,23.0521858 C0.0412881308,22.9946103 0.0196131488,22.9183177 0.0313205391,22.8433955 L0.0313205391,22.8433955 L1.28965379,14.8653079 C1.32280536,14.6551086 1.50403452,14.5003207 1.716832,14.5004548 L1.716832,14.5004548 Z M27.0199757,14.5004549 C28.0613079,14.5004549 28.8451503,14.775232 29.2868862,15.2947607 C29.6894983,15.7678868 29.8237023,16.4434561 29.6840392,17.3032717 C29.3746875,19.2685644 28.1923274,20.2603093 26.1424179,20.2603093 L26.1424179,20.2603093 L25.1579518,20.2603093 C24.9451793,20.2604343 24.7641523,20.4154074 24.7312286,20.6256172 L24.7312286,20.6256172 L24.3741094,22.8870686 C24.3510588,23.0340954 24.2244986,23.1425205 24.0756761,23.1427387 L24.0756761,23.1427387 L22.4788757,23.1427387 C22.4031504,23.1427387 22.3312222,23.1095806 22.2820418,23.0519993 C22.2328614,22.9944179 22.2113611,22.9181887 22.2232057,22.8433955 L22.2232057,22.8433955 L23.481539,14.8653079 C23.5146637,14.6552788 23.6956371,14.5005446 23.9082622,14.5004549 L23.9082622,14.5004549 Z M39.7693573,14.5 C39.8451226,14.5001341 39.9170396,14.5333976 39.9662028,14.5910464 C40.0153661,14.6486951 40.0368574,14.724962 40.0250273,14.7997981 L40.0250273,14.7997981 L38.7657842,22.7774308 C38.7330293,22.9880628 38.5519676,23.1427387 38.338606,23.1427387 L38.338606,23.1427387 L37.0547967,23.1427387 C36.9790714,23.1427387 36.9071432,23.1095806 36.8579627,23.0519993 C36.8087823,22.9944179 36.7872821,22.9181887 36.7991267,22.8433955 L36.7991267,22.8433955 L38.076112,14.7192757 C38.0959819,14.5933486 38.2042977,14.5004514 38.331782,14.5 L38.331782,14.5 Z M10.8058559,18.8181848 C9.95741353,18.8181848 9.27047094,19.4082276 9.13626692,20.2521206 C9.06620788,20.6661059 9.14991479,21.0377828 9.37010036,21.2989119 C9.59210565,21.5618608 9.93785159,21.7006141 10.3704889,21.7006141 C11.2321242,21.7006141 11.9076936,21.1292235 12.0514511,20.2780516 C12.1165059,19.865886 12.02643,19.4919345 11.7994205,19.2239814 C11.5728659,18.9587578 11.2289397,18.8181848 10.8058559,18.8181848 Z M32.9972861,18.8181848 C32.1488438,18.8181848 31.462811,19.4082276 31.3276972,20.2521206 C31.258548,20.6661059 31.341345,21.0377828 31.5615306,21.2989119 C31.7835359,21.5618608 32.1301917,21.7006141 32.5619192,21.7006141 C33.4235545,21.7006141 34.1000337,21.1292235 34.2428813,20.2780516 C34.308846,19.865886 34.2187701,19.4919345 33.9908508,19.2239814 C33.7642962,18.9587578 33.42037,18.8181848 32.9972861,18.8181848 Z M3.67029656,16.22691 L3.45511521,16.22691 C3.32753508,16.22691 3.21891066,16.3197154 3.19899025,16.4457308 L3.19899025,16.4457308 L2.86962175,18.5306698 L3.46294891,18.5305302 C4.24748643,18.5278788 5.02539318,18.47485 5.18702941,17.4142743 C5.24935467,17.0221256 5.19931249,16.73825 5.03599303,16.5471799 C4.76212585,16.22691 4.23213372,16.22691 3.67029656,16.22691 L3.67029656,16.22691 Z M25.8626367,16.2269098 L25.6474553,16.2269098 C25.5199058,16.2267523 25.4113218,16.3196863 25.3917853,16.4457308 L25.3917853,16.4457308 L25.0619618,18.5306698 L25.6548989,18.5305302 C26.4398254,18.5278788 27.2177105,18.47485 27.3789146,17.4142743 C27.4412398,17.0221256 27.3916526,16.73825 27.2283331,16.5471799 C26.9544659,16.2269098 26.4240189,16.2269098 25.8626367,16.2269098 L25.8626367,16.2269098 Z" id="Paypal" fill="#666666" fill-rule="nonzero"/>
    </g></g></svg>