<svg width="39" height="14" xmlns="http://www.w3.org/2000/svg"><g fill="#666" fill-rule="evenodd"><path d="M12.11 12.938L15.684.547h3.19l-3.573 12.39h-3.19M10.685.55l-2.87 5.252c-.73 1.376-1.156 2.072-1.364 2.941h-.044c.052-1.102-.096-2.456-.113-3.22L5.981.55H.608L.556.884c1.374 0 2.2.727 2.426 2.218l1.043 9.836h3.304L14.014.55h-3.33M35.133 5.63c-.035-.918-.061-2.16-.01-2.912h-.043c-.19.615-1.026 2.463-1.39 3.371l-1.192 2.715h2.8l-.165-3.175zm.365 7.308l-.087-1.842-3.982-.003-.817 1.845h-3.46L33.427.57h4.252l1.06 12.367h-3.242zM22.23 13.29c-2.251 0-3.747-.75-4.816-1.42l1.521-2.44c.957.565 1.704 1.213 3.435 1.213.565 0 1.095-.151 1.4-.706.443-.806-.096-1.239-1.348-1.981l-.618-.42c-1.843-1.327-2.643-2.587-1.773-4.787.556-1.407 2.026-2.474 4.443-2.474 1.669 0 3.242.759 4.155 1.5L26.882 3.93c-.896-.757-1.635-1.14-2.478-1.14-.67 0-1.182.273-1.356.64-.34.693.104 1.164 1.078 1.798l.73.49c2.243 1.487 2.773 3.045 2.217 4.504-.974 2.508-2.869 3.068-4.843 3.068"/></g></svg>